<?xml version="1.0" encoding="utf-8"?>
<!-- Generator: Adobe Illustrator 25.0.1, SVG Export Plug-In . SVG Version: 6.00 Build 0)  -->
<svg version="1.1" id="Ebene_1" xmlns="http://www.w3.org/2000/svg" xmlns:xlink="http://www.w3.org/1999/xlink" x="0px" y="0px"
	 width="145.83px" height="187.87px" viewBox="0 0 219.7 305" style="enable-background:new 0 0 219.7 305;" xml:space="preserve">
<style type="text/css">
	.st0{fill:#00B3C4;}
</style>
<g>
	<path class="st0" d="M88.2,171c4.8-2.5,10.3,2,8.7,7.2c-1.3,4-6.1,5.6-9.5,3.1C83.8,178.7,84.2,173.2,88.2,171"/>
	<path class="st0" d="M79,166.8c3.6-2,7.8,1.5,6.6,5.4c-1.2,3.9-6.7,4.5-8.6,0.8C75.8,170.8,76.7,168,79,166.8"/>
	<path class="st0" d="M68.3,168.3c0.3-1,1-1.8,2-2.4c3.1-1.6,6.6,1.3,5.6,4.6c-0.3,1-1,1.8-1.9,2.3
		C70.8,174.5,67.2,171.6,68.3,168.3"/>
	<path class="st0" d="M63,168.4c1.7-0.9,3.7-0.3,4.6,1.3c0.9,1.7,0.2,3.7-1.4,4.6c-1.2,0.6-2.6,0.5-3.6-0.3
		C60.5,172.6,60.7,169.5,63,168.4"/>
	<path class="st0" d="M58.1,173c1.3-0.7,2.8-0.2,3.5,1.1c0.7,1.2,0.2,2.8-1.1,3.5c-1.3,0.7-2.8,0.2-3.5-1.1
		c-0.1-0.2-0.1-0.3-0.2-0.6C56.5,174.8,57,173.6,58.1,173"/>
	<path class="st0" d="M57.1,185.9l-7.4,21.5c-1.4,3.1-1.4,6.8-0.1,10c4.2,10.2,18.3,7.3,20.6-3.2c0.9-4.2,2.3-7.6,5.5-10.8
		c1.3-1.3,2.6-2.3,4.1-3.1c10.4-5.6,9.1-20-2.6-24.3c-8.1-2.9-17.4,1-19.6,8.9L57.1,185.9z"/>
	<path class="st0" d="M105.7,238.1c0.4-5.5-5.9-8.9-9.9-5.3c-3.1,2.8-2.6,8,1,10.2C100.6,245.4,105.4,242.8,105.7,238.1"/>
	<path class="st0" d="M113.2,245.2c0.3-4.2-4.5-6.7-7.5-4c-3,2.7-1.4,8,2.7,8.4C110.9,249.7,113,247.8,113.2,245.2"/>
	<path class="st0" d="M116.2,255.8c0.8-0.7,1.2-1.7,1.3-2.8c0.2-3.5-3.8-5.7-6.4-3.4c-0.8,0.7-1.2,1.7-1.3,2.7
		C109.5,255.9,113.6,258.1,116.2,255.8"/>
	<path class="st0" d="M118.2,260.8c0.2-1.9-1.2-3.6-3-3.8c-1.8-0.1-3.4,1.3-3.5,3.2c-0.1,1.4,0.6,2.6,1.7,3.3
		C115.4,264.7,118.1,263.3,118.2,260.8"/>
	<path class="st0" d="M116,267.1c0.1-1.4-1-2.7-2.4-2.9c-1.4-0.1-2.6,1-2.7,2.5c-0.1,1.4,1,2.7,2.4,2.9c0.2,0,0.4,0,0.6,0
		C115,269.4,115.9,268.4,116,267.1"/>
	<path class="st0" d="M104.8,273.2l-16.3,15.5c-2.2,2.5-5.5,4.1-8.9,4.1c-10.8,0.1-13.8-14.2-5.3-20.6c3.4-2.5,5.9-5.2,7.5-9.4
		c0.6-1.7,1-3.3,1.2-5.1c0.9-12,14.4-16.5,22.8-7.2c5.9,6.5,6,16.7-0.2,22L104.8,273.2z"/>
	<path class="st0" d="M39.6,252.4c4.8-2.5,10.3,2,8.7,7.2c-1.3,4-6.1,5.6-9.5,3.1C35.2,260,35.6,254.5,39.6,252.4"/>
	<path class="st0" d="M30.4,248.2c3.6-2,7.8,1.5,6.6,5.4c-1.2,3.9-6.7,4.5-8.6,0.8C27.2,252.2,28.1,249.4,30.4,248.2"/>
	<path class="st0" d="M19.7,249.6c0.3-1,1-1.8,2-2.4c3.1-1.6,6.6,1.3,5.6,4.6c-0.3,1-1,1.8-1.9,2.3C22.2,255.9,18.6,253,19.7,249.6"
		/>
	<path class="st0" d="M14.4,249.7c1.7-0.9,3.7-0.3,4.6,1.3c0.9,1.7,0.2,3.7-1.4,4.6c-1.2,0.6-2.6,0.5-3.6-0.3
		C11.9,254,12.1,250.9,14.4,249.7"/>
	<path class="st0" d="M9.5,254.3c1.3-0.7,2.8-0.2,3.5,1.1c0.7,1.2,0.2,2.8-1.1,3.5c-1.3,0.7-2.8,0.2-3.5-1.1
		c-0.1-0.2-0.1-0.3-0.2-0.6C7.9,256.2,8.4,254.9,9.5,254.3"/>
	<path class="st0" d="M8.5,267.2l-7.4,21.5c-1.4,3.1-1.4,6.8-0.1,10c4.2,10.2,18.3,7.3,20.6-3.2c0.9-4.2,2.3-7.6,5.5-10.8
		c1.3-1.3,2.6-2.3,4.1-3.1c10.4-5.6,9.1-20-2.6-24.3c-8.1-2.9-17.4,1-19.6,8.9L8.5,267.2z"/>
	<path class="st0" d="M150.8,153.4c0.4-5.5-5.9-8.9-9.9-5.3c-3.1,2.8-2.6,8,1,10.2C145.7,160.6,150.5,158,150.8,153.4"/>
	<path class="st0" d="M158.3,160.4c0.3-4.2-4.5-6.7-7.5-4c-3,2.7-1.4,8,2.7,8.4C156,164.9,158.1,163,158.3,160.4"/>
	<path class="st0" d="M161.3,171c0.8-0.7,1.2-1.7,1.3-2.8c0.2-3.5-3.8-5.7-6.4-3.4c-0.8,0.7-1.2,1.7-1.3,2.7
		C154.6,171.1,158.7,173.3,161.3,171"/>
	<path class="st0" d="M163.3,176c0.2-1.9-1.2-3.6-3-3.8c-1.8-0.1-3.4,1.3-3.5,3.2c-0.1,1.4,0.6,2.6,1.7,3.3
		C160.5,180,163.2,178.6,163.3,176"/>
	<path class="st0" d="M161.1,182.4c0.1-1.4-1-2.7-2.4-2.9c-1.4-0.1-2.6,1-2.7,2.5c-0.1,1.4,1,2.7,2.4,2.9c0.2,0,0.4,0,0.6,0
		C160.1,184.6,161,183.7,161.1,182.4"/>
	<path class="st0" d="M149.9,188.5L133.6,204c-2.2,2.5-5.5,4.1-8.9,4.1c-10.8,0.1-13.8-14.2-5.3-20.6c3.4-2.5,5.9-5.2,7.5-9.4
		c0.6-1.7,1-3.3,1.2-5.1c0.9-12,14.4-16.5,22.8-7.2c5.9,6.5,6,16.7-0.2,22L149.9,188.5z"/>
	<path class="st0" d="M136.4,86.6c4.8-2.5,10.3,2,8.7,7.2c-1.3,4-6.1,5.6-9.5,3.1C132,94.3,132.4,88.8,136.4,86.6"/>
	<path class="st0" d="M127.1,82.4c3.6-2,7.8,1.5,6.6,5.4c-1.2,3.9-6.7,4.5-8.6,0.8C124,86.5,124.9,83.6,127.1,82.4"/>
	<path class="st0" d="M116.4,83.9c0.3-1,1-1.8,2-2.4c3.1-1.6,6.6,1.3,5.6,4.6c-0.3,1-1,1.8-1.9,2.3C119,90.1,115.4,87.2,116.4,83.9"
		/>
	<path class="st0" d="M111.1,84c1.7-0.9,3.7-0.3,4.6,1.3c0.9,1.7,0.2,3.7-1.4,4.6c-1.2,0.6-2.6,0.5-3.6-0.3
		C108.7,88.2,108.9,85.1,111.1,84"/>
	<path class="st0" d="M106.3,88.6c1.3-0.7,2.8-0.2,3.5,1.1c0.7,1.2,0.2,2.8-1.1,3.5c-1.3,0.7-2.8,0.2-3.5-1.1
		c-0.1-0.2-0.1-0.3-0.2-0.6C104.7,90.5,105.2,89.2,106.3,88.6"/>
	<path class="st0" d="M105.3,101.5L97.9,123c-1.4,3.1-1.4,6.8-0.1,10c4.2,10.2,18.3,7.3,20.6-3.2c0.9-4.2,2.3-7.6,5.5-10.8
		c1.3-1.3,2.6-2.3,4.1-3.1c10.4-5.6,9.1-20-2.6-24.3c-8.1-2.9-17.4,1-19.6,8.9L105.3,101.5z"/>
	<path class="st0" d="M207.3,72.3c0.4-5.5-5.9-8.9-9.9-5.3c-3.1,2.8-2.6,8,1,10.2C202.2,79.5,206.9,76.9,207.3,72.3"/>
	<path class="st0" d="M214.7,79.3c0.3-4.2-4.5-6.7-7.5-4c-3,2.7-1.4,8,2.7,8.4C212.4,83.9,214.6,81.9,214.7,79.3"/>
	<path class="st0" d="M217.7,89.9c0.8-0.7,1.2-1.7,1.3-2.8c0.2-3.5-3.8-5.7-6.4-3.4c-0.8,0.7-1.2,1.7-1.3,2.7
		C211.1,90,215.1,92.2,217.7,89.9"/>
	<path class="st0" d="M219.7,94.9c0.2-1.9-1.2-3.6-3-3.8c-1.8-0.1-3.4,1.3-3.5,3.2c-0.1,1.4,0.6,2.6,1.7,3.3
		C216.9,98.9,219.6,97.5,219.7,94.9"/>
	<path class="st0" d="M217.5,101.3c0.1-1.4-1-2.7-2.4-2.9c-1.4-0.1-2.6,1-2.7,2.5c-0.1,1.4,1,2.7,2.4,2.9c0.2,0,0.4,0,0.6,0
		C216.5,103.5,217.4,102.6,217.5,101.3"/>
	<path class="st0" d="M206.3,107.4l-16.3,15.5c-2.2,2.5-5.5,4.1-8.9,4.1c-10.8,0.1-13.8-14.2-5.3-20.6c3.4-2.5,5.9-5.2,7.5-9.4
		c0.6-1.7,1-3.3,1.2-5.1c0.9-12,14.4-16.5,22.8-7.2c5.9,6.5,6,16.7-0.2,22L206.3,107.4z"/>
	<path class="st0" d="M192.8,5.6c4.8-2.5,10.3,2,8.7,7.2c-1.3,4-6.1,5.6-9.5,3.1C188.4,13.2,188.8,7.7,192.8,5.6"/>
	<path class="st0" d="M183.6,1.4c3.6-2,7.8,1.5,6.6,5.4c-1.2,3.9-6.7,4.5-8.6,0.8C180.4,5.4,181.3,2.5,183.6,1.4"/>
	<path class="st0" d="M172.9,2.8c0.3-1,1-1.8,2-2.4c3.1-1.6,6.6,1.3,5.6,4.6c-0.3,1-1,1.8-1.9,2.3C175.4,9.1,171.8,6.2,172.9,2.8"/>
	<path class="st0" d="M167.6,2.9c1.7-0.9,3.7-0.3,4.6,1.3c0.9,1.7,0.2,3.7-1.4,4.6c-1.2,0.6-2.6,0.5-3.6-0.3
		C165.1,7.1,165.3,4.1,167.6,2.9"/>
	<path class="st0" d="M162.7,7.5c1.3-0.7,2.8-0.2,3.5,1.1c0.7,1.2,0.2,2.8-1.1,3.5c-1.3,0.7-2.8,0.2-3.5-1.1
		c-0.1-0.2-0.1-0.3-0.2-0.6C161.1,9.4,161.6,8.1,162.7,7.5"/>
	<path class="st0" d="M161.7,20.4l-7.4,21.5c-1.4,3.1-1.4,6.8-0.1,10c4.2,10.2,18.3,7.3,20.6-3.2c0.9-4.2,2.3-7.6,5.5-10.8
		c1.3-1.3,2.6-2.3,4.1-3.1c10.4-5.6,9.1-20-2.6-24.3c-8.1-2.9-17.4,1-19.6,8.9L161.7,20.4z"/>
</g>
</svg>
